{"title":"From Dusk Till Dawn S03E03 1080p WEB-DL HEVC DD5.1 x265","uid":15835391,"size":721127701,"categoryP":"video","categoryS":"hd___tv_shows","magnet":"?xt=urn:btih:02c2f9b533c0fea8a72360b14bc36a14bb1e5045&amp;dn=From+Dusk+Till+Dawn+S03E03+1080p+WEB-DL+HEVC+DD5.1+x265&amp;tr=udp%3A%2F%2Ftracker.leechers-paradise.org%3A6969&amp;tr=udp%3A%2F%2Fzer0day.ch%3A1337&amp;tr=udp%3A%2F%2Fopen.demonii.com%3A1337&amp;tr=udp%3A%2F%2Ftracker.coppersurfer.tk%3A6969&amp;tr=udp%3A%2F%2Fexodus.desync.com%3A6969","seeders":0,"leechers":3,"uploader":"nayhtut","files":1,"time":1473965808,"description":"Source:From Dusk Till Dawn The Series S03E03 1080p WEB-DL DD5.1 H.264dbR(1.55GB)\r\n\r\nComplete name:\r\nFrom.Dusk.Till.Dawn.The.Series.S03E03.1080p.WEB.DL.HEVC.DD5.1.x265.mkv\r\nFormat                                   : Matroska\r\nFormat version                           : Version 4 / Version 2\r\nFile size                                : 688 MiB\r\nDuration                                 : 41mn 30s\r\nOverall bit rate                         : 2 316 Kbps\r\nWriting application                      : Lavf57.25.100\r\nWriting library                          : Lavf57.25.100\r\n\r\nVideo\r\n\r\nID                                       : 1\r\nFormat                                   : V_MPEGH/ISO/HEVC\r\nCodec ID                                 : V_MPEGH/ISO/HEVC\r\nDuration                                 : 41mn 30s\r\nBit rate                                 : 1 886 Kbps\r\nWidth                                    : 1 912 pixels\r\nHeight                                   : 1 072 pixels\r\nDisplay aspect ratio                     : 16:9\r\nFrame rate                               : 25.000 fps\r\nBits/(Pixel*Frame)                       : 0.037\r\nStream size                              : 560 MiB (81%)\r\nWriting library                          : Lavc57.48.101 libx265\r\nLanguage                                 : English\r\nDefault                                  : Yes\r\nForced                                   : No\r\nDURATION                                 : 00:41:30.971000000\r\n\r\nAudio\r\n\r\nID                                       : 2\r\nFormat                                   : AC-3\r\nFormat/Info                              : Audio Coding 3\r\nMode extension                           : CM (complete main)\r\nFormat settings, Endianness              : Big\r\nCodec ID                                 : A_AC3\r\nDuration                                 : 41mn 30s\r\nBit rate mode                            : Constant\r\nBit rate                                 : 384 Kbps\r\nChannel(s)                               : 6 channels\r\nChannel positions                        : Front: L C R, Side: L R, LFE\r\nSampling rate                            : 48.0 KHz\r\nBit depth                                : 16 bits\r\nCompression mode                         : Lossy\r\nStream size                              : 114 MiB (17%)\r\nWriting library                          : Lavc57.24.102 ac3\r\nLanguage                                 : English\r\nDefault                                  : Yes\r\nForced                                   : No\r\nDURATION                                 : 00:41:30.975000000\r\n\r\nText\r\n\r\nID                                       : 3\r\nFormat                                   : ASS\r\nCodec ID                                 : S_TEXT/ASS\r\nCodec ID/Info                            : Advanced Sub Station Alpha\r\nLanguage                                 : English","torrent":{"xt":"urn:btih:02c2f9b533c0fea8a72360b14bc36a14bb1e5045","amp;dn":"From+Dusk+Till+Dawn+S03E03+1080p+WEB-DL+HEVC+DD5.1+x265","amp;tr":["udp%3A%2F%2Ftracker.leechers-paradise.org%3A6969","udp%3A%2F%2Fzer0day.ch%3A1337","udp%3A%2F%2Fopen.demonii.com%3A1337","udp%3A%2F%2Ftracker.coppersurfer.tk%3A6969","udp%3A%2F%2Fexodus.desync.com%3A6969"],"infoHash":"02c2f9b533c0fea8a72360b14bc36a14bb1e5045","infoHashBuffer":{"type":"Buffer","data":[2,194,249,181,51,192,254,168,167,35,96,177,75,195,106,20,187,30,80,69]},"announce":[],"urlList":[]}}